<?xml version="1.0" encoding="UTF-8"?> <svg xmlns="http://www.w3.org/2000/svg" xmlns:xlink="http://www.w3.org/1999/xlink" id="illu-howitworks-hero" width="786.81" height="561.96"><defs><linearGradient id="linear-gradient" x1="563.92" y1="246.76" x2="563.92" y2="263.28" gradientUnits="userSpaceOnUse"><stop offset="0" stop-color="#2eb574"></stop><stop offset="1" stop-color="#37c1d6"></stop></linearGradient><linearGradient id="linear-gradient-2" x1="563.92" y1="327.02" x2="563.92" y2="314.8" xlink:href="#linear-gradient"></linearGradient><style>.cls-1,.cls-35,.cls-6{fill:none}.cls-1{stroke:#c7c7c7;stroke-width:5px}.cls-1,.cls-35{stroke-miterlimit:10}.cls-1,.cls-15,.cls-16,.cls-17,.cls-21,.cls-26,.cls-32,.cls-38,.cls-39,.cls-41,.cls-44{fill-rule:evenodd}.cls-17,.cls-2{fill:#fff}.cls-21,.cls-3{fill:#f7971c}.cls-5{fill:#efefef}.cls-7{fill:#c7c7c7}.cls-10{fill:#22b46e}.cls-16{fill:#37c1d6}.cls-15{fill:#2eb574}.cls-19{fill:#9eb7c4}.cls-36{fill:#f16858}.cls-37{fill:#55b673}.cls-23{fill:#e5e5e5}.cls-26{fill:#d8d8d8}.cls-29{fill:#8cd8e0}.cls-28{fill:#41b7cb}.cls-30,.cls-32{fill:#0782c5}.cls-31{fill:#0773a3}.cls-35{stroke:#f5a61e;stroke-width:1.19px}.cls-39{fill:#2b96c3}.cls-41{fill:#333}.cls-44{fill:#25c1d5}</style></defs><g id="Illustration"><g id="Lines"><path id="hotel_path" data-name="hotel path" class="cls-1" d="M58.53 207.28h59.54c31.62 0 31.62 31.63 31.62 31.63v10.7c0 39.28 39.45 31.44 39.45 31.44l325.67-.7"></path><path id="car_path" data-name="car path" class="cls-1" d="M276.2 471.06h85.05c39.7 0 39.44-38.2 39.44-38.2V359c0-39.11 39.44-38.72 39.44-38.72h74.68"></path><path id="flight_path" data-name="flight path" class="cls-1" d="M425.72 120h8.7c39.28 0 39.44 39.44 39.44 39.44v46.38s.39 36.92 39.44 36.92h11.84"></path></g><g id="Phone"><path class="cls-2" d="M523.5 51.36h254.46v453.1H523.5z"></path><path class="cls-3" d="M716.71 463.35A22.27 22.27 0 10739 441.08a22.27 22.27 0 00-22.27 22.27"></path><path fill="#e9f3f9" d="M527.97 263.2H773.5v52.84H527.97z"></path><path class="cls-5" d="M528.07 143.41h246.25v32.7H528.07z"></path><path class="cls-6" d="M532.99 471.03h172.73v26.09H532.99z"></path><path class="cls-7" d="M552.43 154.63h72.76a5.13 5.13 0 010 10.25h-72.76a5.13 5.13 0 110-10.25z"></path><path class="cls-5" d="M601.47 204.21h64.7a6.69 6.69 0 110 13.38h-64.7a6.69 6.69 0 010-13.38zM601.47 225.35h81.36a6.69 6.69 0 110 13.37h-81.36a6.69 6.69 0 110-13.37z"></path><path d="M601.47 282.93h103.7a6.69 6.69 0 110 13.38h-103.7a6.69 6.69 0 010-13.38z" fill="#e6e7e8"></path><path d="M556.47 97.7h125.84a9.17 9.17 0 110 18.34H556.47a9.17 9.17 0 010-18.34z" fill="#8e8e8e"></path><path class="cls-10" d="M695.89 204.21h34.73a6.69 6.69 0 110 13.38h-34.73a6.69 6.69 0 110-13.38z"></path><path class="cls-5" d="M601.47 343.77h64.7a6.69 6.69 0 110 13.38h-64.7a6.69 6.69 0 010-13.38z"></path><rect class="cls-5" x="594.78" y="364.9" width="94.75" height="13.38" rx="6.69"></rect><rect class="cls-10" x="689.2" y="343.56" width="48.12" height="13.38" rx="6.69"></rect><path class="cls-5" d="M601.47 476.11h64.7a6.69 6.69 0 110 13.37h-64.7a6.69 6.69 0 110-13.37zM601.47 409.74h64.7a6.69 6.69 0 110 13.38h-64.7a6.69 6.69 0 010-13.38zM601.47 430.87h81.36a6.69 6.69 0 010 13.38h-81.36a6.69 6.69 0 010-13.38z"></path><g><path fill="#37c1d6" d="M561.21 416.39h5.43v97.73h-5.43z"></path><path fill="#2eb574" d="M561.21 367.07h5.43v48.87h-5.43z"></path><path fill="url(#linear-gradient)" d="M561.21 219.41h5.43v73.26h-5.43z"></path><path fill="url(#linear-gradient-2)" d="M561.21 275.56h5.43v73.26h-5.43z"></path><g><path class="cls-15" d="M564.05 235.39a17.1 17.1 0 10-17.1-17.1 17.1 17.1 0 0017.1 17.1"></path><path class="cls-2" d="M570.38 212.93a6.2 6.2 0 012.28-.55 2.23 2.23 0 011.49.49 2 2 0 01.52.52c.28.43-.68 1.18-.87 1.36-.53.46-1.21.87-5.2 2.77h-.08c-.72 1.62-3 6.88-3.27 7.51a4 4 0 01-1.77 1.68h-.12c-.26 0-.26-.32-.26-.32l-.8-6.22-.92.33h-.12l-.76.25h-.09l-.41.25h-.12l-.6.17h-.19l-.37.1-.3.07h-.23l-.33.07h-.18l-.32.05h-.13l-.37.06h-.07l-.36.05c-.78-.16-1.39-1.28-1.39-1.28s-1.51-2.58-1.56-2.77a.4.4 0 01.18-.49l.18-.07a.74.74 0 01.21 0 .85.85 0 01.32 0h.14l.19.08.13.08s.35.18.51.28l.18.12h.06l.25.19h.07l.22.17.08.07.34.27.19.15a2.42 2.42 0 00.4.25h.37l3.39-1.6 9.5-4.44m-12.37.27a7.11 7.11 0 00-.8.34c-.4.19.14.62.14.62l2.6 2.62 4.48-2.07c-1.48-.48-3.26-1-4.22-1.31a6.09 6.09 0 00-1.64-.25 2.59 2.59 0 00-.56.05"></path><path class="cls-16" d="M564.28 307a17.11 17.11 0 10-17.1-17.11 17.11 17.11 0 0017.1 17.11"></path><path class="cls-17" d="M570.51 288.65v-3.36a1.68 1.68 0 110 3.36zm0-4.54h-13.12v4.07c0 2.66 1.16 4.28 3 5.1h7.18a4.67 4.67 0 002.71-3.46h.18a2.86 2.86 0 100-5.72zm-14 11.72a1.16 1.16 0 001.19 1.17h12.49a1.15 1.15 0 001.14-1.15v-1.36h-14.78z"></path><path class="cls-15" d="M564.05 373.34a17.1 17.1 0 10-17.1-17.1 17.09 17.09 0 0017.1 17.1"></path><path class="cls-2" d="M570.38 350.88a6 6 0 012.28-.55 2.28 2.28 0 011.49.48 2.14 2.14 0 01.52.52c.28.43-.68 1.18-.87 1.36-.53.46-1.21.87-5.2 2.78h-.08c-.72 1.62-3 6.89-3.27 7.51a3.79 3.79 0 01-1.77 1.68h-.12c-.26 0-.26-.33-.26-.33l-.8-6.21-.92.32h-.12c-.26.1-.52.18-.76.26h-.09l-.38.12h-.12l-.6.17-.19.05-.37.1-.3.07-.23.05-.33.07h-.18l-.32.05h-.13l-.37.06H556.44c-.78-.15-1.39-1.28-1.39-1.28s-1.51-2.57-1.56-2.76a.39.39 0 01.18-.5.64.64 0 01.18-.06.38.38 0 01.21 0 .69.69 0 01.32 0h.14a.82.82 0 01.19.09l.13.07.51.28a.59.59 0 01.18.13l.08.06.25.18.07.05.22.17.08.07.34.26.19.16a3.26 3.26 0 00.4.24h.37l3.39-1.59 9.5-4.45m-12.37.24a7.11 7.11 0 00-.8.34c-.4.19.14.62.14.62l2.6 2.62 4.48-2.07c-1.48-.48-3.26-1-4.22-1.31a6.09 6.09 0 00-1.64-.25 2.59 2.59 0 00-.56 0"></path><g><path class="cls-16" d="M564.05 505.68a17.1 17.1 0 10-17.1-17.1 17.09 17.09 0 0017.1 17.1"></path><path class="cls-2" d="M574.08 488.55a1.83 1.83 0 01-.07.46 1 1 0 01.07.38V494a1 1 0 01-.46.92 1 1 0 01-1 0 1 1 0 01-.47-.92v-2.6h-16v2.6a1 1 0 01-2 0v-10.65a1 1 0 012 0v5.24h6.44a1.7 1.7 0 011.71-1.71h8a1.7 1.7 0 011.71 1.71zm-16-.66h3a1.06 1.06 0 100-2.11h-3a1.06 1.06 0 000 2.11z"></path></g><g><path class="cls-16" d="M564.05 439.27A17.11 17.11 0 10547 422.15a17.1 17.1 0 0017.1 17.12"></path><path class="cls-17" d="M565.91 425.12h-4a.42.42 0 01-.41-.42.41.41 0 01.41-.41h4a.41.41 0 01.42.41.42.42 0 01-.42.42zm-8.34-1.66a1.24 1.24 0 11-1.19 1.24 1.21 1.21 0 011.19-1.24zm.33-4.61l.74-1.27a2.62 2.62 0 012.3-1.27h6a2.64 2.64 0 012.3 1.27l.75 1.27.85 1.45H557zm13.57 5.85a1.2 1.2 0 11-1.19-1.24 1.22 1.22 0 011.19 1.24zm1.62-5.81h-1.7l-1-2a3.18 3.18 0 00-2.79-1.73h-7.27a3.16 3.16 0 00-2.78 1.73l-1.06 2h-1.69c-.43 0-.77.24-.77.52v.87a.73.73 0 00.77.67h.13a.88.88 0 00-.11.42v5A1.64 1.64 0 00556 428v.37a.81.81 0 00.79.83h1.59a.81.81 0 00.79-.83V428h9.51v.31a.81.81 0 00.79.83h1.64a.81.81 0 00.79-.83V428a1.64 1.64 0 001.19-1.61v-5a.88.88 0 00-.09-.39h.14a.72.72 0 00.76-.67v-.85c-.04-.35-.39-.59-.81-.59z"></path></g></g></g><g><path d="M773.82 497.12H528.3V64.84h245.54zM740.82 0h-180.2a45.81 45.81 0 00-45.81 45.81v470.33A45.81 45.81 0 00560.62 562h180.2a45.81 45.81 0 0045.81-45.8V45.82A45.81 45.81 0 00740.82 0" fill="#c1d3dc"></path><path class="cls-19" d="M669.42 35.16h-36.7a3.58 3.58 0 01-3.57-3.57v-1.5a3.59 3.59 0 013.57-3.57h36.7a3.59 3.59 0 013.58 3.57v1.5a3.58 3.58 0 01-3.57 3.57M670 523.54a18.47 18.47 0 11-18.47-18.47A18.48 18.48 0 01670 523.54"></path></g></g></g><filter id="blurred"><feGaussianBlur stdDeviation="2"></feGaussianBlur></filter><g id="dshadow" opacity=".15" filter="url(#blurred)"><rect x="6.6" y="141.69" width="205.4" height="187.4" rx="6"></rect><path d="M123.3 356.11h193.39a6 6 0 016 6v174.66a6.73 6.73 0 01-6.73 6.73H124a6.73 6.73 0 01-6.73-6.73V362.11a6 6 0 016.03-6z"></path><rect x="241.25" y="10.29" width="205.39" height="187.4" rx="6"></rect></g><g id="Display"><g id="Hotel"><rect class="cls-7" x="6.6" y="141.69" width="205.4" height="187.4" rx="6"></rect><path d="M17.92 146.91a5.17 5.17 0 11-5.11 5.16 5.13 5.13 0 015.11-5.16z" fill="#f16858" fill-rule="evenodd"></path><path class="cls-21" d="M36.15 146.91a5.17 5.17 0 11-5.1 5.16 5.14 5.14 0 015.1-5.16z"></path><path d="M54.39 146.91a5.17 5.17 0 11-5.11 5.16 5.13 5.13 0 015.11-5.16z" fill="#55b673" fill-rule="evenodd"></path><path class="cls-2" d="M6.6 162.12H212v160.46a6.51 6.51 0 01-6.51 6.51H13.12a6.51 6.51 0 01-6.51-6.51V162.12H6.6z"></path><path class="cls-23" d="M6.6 162.12H212v25.26H6.6z"></path><path class="cls-3" d="M6.6 187.38H212v45.83H6.6z"></path><rect class="cls-2" x="55.58" y="166.77" width="150.55" height="15.95" rx="6.84"></rect><rect class="cls-7" x="12.47" y="166.59" width="16.73" height="16.32" rx="2.39"></rect><path class="cls-2" d="M21.86 171.23v-2l4.48 4.54-4.48 4.81v-2.68a5.88 5.88 0 00-3.17.95 14.26 14.26 0 00-3 3.35l.17-2.83a6.55 6.55 0 016-6.14zM26.34 246.11h171.97v13.19H26.34z"></path><path d="M195.82 258.82h-173a5.3 5.3 0 01-5.31-5.3 5.3 5.3 0 015.31-5.3h173a5.3 5.3 0 015.3 5.3 5.3 5.3 0 01-5.3 5.3z" opacity=".8" fill="#d8d8d8" fill-rule="evenodd"></path><rect x="17.48" y="268.82" width="183.64" height="10.61" rx="5.3" opacity=".8" fill="#d8d8d8"></rect><path class="cls-26" d="M195.82 300H126a5.3 5.3 0 01-5.3-5.31 5.3 5.3 0 015.3-5.3h69.84a5.3 5.3 0 015.3 5.3 5.3 5.3 0 01-5.32 5.31zM195.82 320.64H126a5.3 5.3 0 01-5.3-5.3A5.3 5.3 0 01126 310h69.84a5.3 5.3 0 015.3 5.3 5.3 5.3 0 01-5.32 5.34z"></path><path class="cls-6" d="M6.6 162.12H212v160.46a6.51 6.51 0 01-6.51 6.51H13.12a6.51 6.51 0 01-6.51-6.51V162.12H6.6z"></path><g><path d="M65.46 177.05v3H64.2v-8h1.26v.79a2.32 2.32 0 011.86-.93c1.5 0 2.57 1.12 2.57 3S68.82 178 67.32 178a2.29 2.29 0 01-1.86-.95zm3.12-2.1A1.71 1.71 0 0067 173a1.89 1.89 0 00-1.49.78v2.29a1.92 1.92 0 001.49.78 1.71 1.71 0 001.58-1.85zM71.16 177.85v-8h1.26v8zM77.55 177.85v-.62a2.44 2.44 0 01-1.87.77 1.93 1.93 0 01-2-1.92 1.86 1.86 0 012-1.88 2.4 2.4 0 011.87.74v-.86c0-.68-.55-1.08-1.35-1.08a2.39 2.39 0 00-1.72.73l-.51-.88a3.46 3.46 0 012.43-.93c1.29 0 2.41.54 2.41 2.1v3.83zm0-1.32v-.87a1.66 1.66 0 00-1.38-.6 1.05 1.05 0 100 2.07 1.66 1.66 0 001.38-.6zM84.31 177.85v-3.62c0-.9-.46-1.2-1.17-1.2a1.91 1.91 0 00-1.48.78v4H80.4v-5.79h1.26v.79a2.73 2.73 0 012-.93 1.67 1.67 0 011.88 1.86v4.07zM86.69 177.1l.57-.91a3 3 0 002 .81c.76 0 1.14-.32 1.14-.78s-.61-.61-1.32-.76c-1-.22-2.18-.49-2.18-1.78 0-1 .81-1.76 2.28-1.76a3.28 3.28 0 012.25.81l-.52.89a2.34 2.34 0 00-1.72-.7c-.66 0-1.08.3-1.08.71s.58.54 1.26.7c1 .21 2.24.5 2.24 1.87 0 1-.85 1.8-2.41 1.8a3.51 3.51 0 01-2.51-.9zM92.46 174.93a4.87 4.87 0 014.76-4.73 3.65 3.65 0 013.78 3.73c0 2-1.22 2.9-2.24 2.9a1.05 1.05 0 01-1.14-.92v-.07a2.29 2.29 0 01-1.8 1 1.81 1.81 0 01-1.85-2 3 3 0 012.76-3 1.62 1.62 0 011.51.85l.14-.67h1.12l-.65 3.06a2.45 2.45 0 000 .27c0 .39.21.58.49.58.47 0 1.2-.55 1.2-2a3.14 3.14 0 00-3.35-3.28 4.38 4.38 0 00-4.27 4.25 3.3 3.3 0 003.41 3.36 4.07 4.07 0 002.21-.66l.24.34a4.64 4.64 0 01-2.5.75 3.7 3.7 0 01-3.82-3.76zm5.28.09l.32-1.51a1.18 1.18 0 00-1.09-.73 2 2 0 00-1.85 2 1.07 1.07 0 001.09 1.17 1.94 1.94 0 001.53-.95zM102.69 176.51v-3.35h-1v-1.1h1v-1.58H104v1.58h1.18v1.1H104v3c0 .39.19.68.55.68a.83.83 0 00.57-.2l.3.95a1.7 1.7 0 01-1.19.37 1.34 1.34 0 01-1.54-1.45zM106.27 177.85v-5.79h1.26v.85a2.48 2.48 0 011.88-1v1.25a1.51 1.51 0 00-.39 0 2 2 0 00-1.49.77v3.94zM110.22 170.57a.78.78 0 11.78.78.79.79 0 01-.78-.78zm.15 7.28v-5.79h1.26v5.79zM114.48 177.05v3h-1.26v-8h1.26v.79a2.34 2.34 0 011.86-.93c1.5 0 2.57 1.12 2.57 3s-1.07 3.05-2.57 3.05a2.29 2.29 0 01-1.86-.91zm3.12-2.1A1.7 1.7 0 00116 173a1.89 1.89 0 00-1.49.78v2.29a1.92 1.92 0 001.49.78c1 .03 1.6-.77 1.6-1.85zM120 170.57a.78.78 0 11.78.78.79.79 0 01-.78-.78zm.16 7.28v-5.79h1.26v5.79zM123.27 176.51v-3.35h-1v-1.1h1v-1.58h1.26v1.58h1.18v1.1h-1.18v3c0 .39.19.68.55.68a.83.83 0 00.57-.2l.3.95a1.7 1.7 0 01-1.19.37 1.34 1.34 0 01-1.49-1.45zM126.89 177.15a.84.84 0 11.84.84.85.85 0 01-.84-.84zM129.46 175a2.9 2.9 0 013-3 2.58 2.58 0 012.21 1l-.82.77a1.55 1.55 0 00-1.33-.69 1.93 1.93 0 000 3.85 1.59 1.59 0 001.33-.68l.82.77a2.58 2.58 0 01-2.21 1 2.91 2.91 0 01-3-3.02zM135.25 175a3 3 0 113 3.05 2.9 2.9 0 01-3-3.05zm4.65 0a1.69 1.69 0 10-1.68 1.93 1.74 1.74 0 001.68-1.93zM149.57 177.85v-3.77c0-.63-.28-1.05-.95-1.05a1.76 1.76 0 00-1.34.77v4H146v-3.77c0-.63-.28-1.05-1-1.05a1.76 1.76 0 00-1.33.78v4h-1.26v-5.79h1.26v.79a2.48 2.48 0 011.88-.93 1.51 1.51 0 011.58 1.06 2.49 2.49 0 012-1.06 1.52 1.52 0 011.67 1.75v4.18z"></path></g><g><path class="cls-2" d="M47.57 216v-5.24h-6.24V216h-2.11v-12h2.11v4.91h6.24V204h2.11v12zM51.7 211.62a4.48 4.48 0 114.47 4.57 4.36 4.36 0 01-4.47-4.57zm7 0a2.54 2.54 0 10-2.52 2.9 2.61 2.61 0 002.51-2.9zM62.84 214v-5H61.4v-1.66h1.44v-2.44h1.89v2.38h1.77v1.66h-1.77v4.55c0 .59.29 1 .83 1a1.25 1.25 0 00.85-.31l.45 1.42a2.46 2.46 0 01-1.78.56 2 2 0 01-2.24-2.16zM67.4 211.62a4.4 4.4 0 014.41-4.56c2.61 0 4.28 2 4.28 4.74v.45h-6.71a2.63 2.63 0 002.77 2.39 3.7 3.7 0 002.47-.95l.86 1.24a5 5 0 01-3.48 1.26 4.37 4.37 0 01-4.6-4.57zm4.41-3a2.4 2.4 0 00-2.45 2.31h4.9a2.33 2.33 0 00-2.45-2.32zM77.92 216v-12h1.89v12zM93.79 216l-2.66-4.49H89V216h-2.07v-12h5.28a3.63 3.63 0 013.92 3.76 3.37 3.37 0 01-2.84 3.53l2.94 4.71zm.18-8.25a1.89 1.89 0 00-2-1.91H89v3.82h2.88a1.89 1.89 0 002.12-1.93zM97.39 211.62a4.4 4.4 0 014.41-4.56c2.61 0 4.29 2 4.29 4.74v.45h-6.72a2.64 2.64 0 002.78 2.39 3.68 3.68 0 002.46-.95l.87 1.24a5.08 5.08 0 01-3.53 1.26 4.38 4.38 0 01-4.56-4.57zm4.41-3a2.4 2.4 0 00-2.45 2.31h4.9a2.33 2.33 0 00-2.45-2.32zM107.11 214.84l.87-1.37a4.49 4.49 0 003 1.23c1.13 0 1.71-.49 1.71-1.17s-.92-.92-2-1.16c-1.49-.32-3.28-.72-3.28-2.66 0-1.42 1.23-2.65 3.42-2.65a4.94 4.94 0 013.39 1.23l-.79 1.33a3.53 3.53 0 00-2.58-1c-1 0-1.62.45-1.62 1.06s.87.81 1.89 1c1.51.33 3.37.76 3.37 2.81 0 1.53-1.28 2.7-3.62 2.7a5.3 5.3 0 01-3.76-1.35zM115.73 211.62a4.4 4.4 0 014.41-4.56c2.61 0 4.29 2 4.29 4.74v.45h-6.72a2.63 2.63 0 002.77 2.39 3.68 3.68 0 002.47-.95l.86 1.24a5 5 0 01-3.52 1.26 4.37 4.37 0 01-4.56-4.57zm4.41-3a2.4 2.4 0 00-2.45 2.31h4.9a2.33 2.33 0 00-2.45-2.32zM126.23 216v-8.7h1.89v1.28a3.71 3.71 0 012.82-1.48v1.9a3.25 3.25 0 00-.59 0 3 3 0 00-2.23 1.15V216zM135.28 216l-3.55-8.7h2l2.54 6.52 2.54-6.52h2l-3.54 8.7zM147.28 216v-1a3.66 3.66 0 01-2.81 1.15 2.88 2.88 0 01-3-2.88 2.8 2.8 0 013-2.83 3.59 3.59 0 012.81 1.12v-1.3c0-1-.83-1.62-2-1.62a3.58 3.58 0 00-2.58 1.1l-.77-1.31a5.15 5.15 0 013.65-1.41c1.93 0 3.62.81 3.62 3.15V216zm0-2v-1.32a2.55 2.55 0 00-2.07-.9 1.58 1.58 0 100 3.12 2.55 2.55 0 002.07-.9zM151.89 214v-5h-1.44v-1.66h1.44v-2.44h1.89v2.38h1.77v1.66h-1.77v4.55c0 .59.29 1 .83 1a1.25 1.25 0 00.85-.31l.45 1.42a2.46 2.46 0 01-1.78.56 2 2 0 01-2.24-2.16zM157 205.05a1.18 1.18 0 011.17-1.17 1.17 1.17 0 110 2.34 1.18 1.18 0 01-1.17-1.17zm.23 10.93v-8.7h1.89V216zM160.89 211.62a4.48 4.48 0 114.46 4.57 4.35 4.35 0 01-4.46-4.57zm7 0a2.54 2.54 0 10-2.52 2.9 2.61 2.61 0 002.5-2.9zM177.55 216v-5.44c0-1.35-.68-1.8-1.74-1.8a2.86 2.86 0 00-2.24 1.17V216h-1.89v-8.7h1.89v1.19a4.12 4.12 0 013.07-1.41 2.5 2.5 0 012.8 2.79V216z"></path></g><g><path d="M37.12 178.2v-7.12h-2.53v-.88h6.07v.88h-2.54v7.12zM40.66 175.29a2.87 2.87 0 112.86 3.05 2.84 2.84 0 01-2.86-3.05zm4.78 0a1.95 1.95 0 10-3.85 0 1.95 1.95 0 103.85 0zM47.4 173a.66.66 0 11.66.66.67.67 0 01-.66-.66zm0 4.68a.66.66 0 11.66.66.67.67 0 01-.66-.68z"></path></g><g id="Hotel-2" data-name="Hotel"><path d="M82.54 289h-27.8v17.31h33.47v-11.67h.16a5.74 5.74 0 00-5.83-5.64" fill="#8cd8e0" fill-rule="evenodd"></path><path class="cls-28" d="M74.76 294.51h30.42v34.58H74.76z"></path><path class="cls-29" d="M29.93 294.51h50.43v34.58H29.93z"></path><path class="cls-28" d="M61.15 294.89a6 6 0 00-12 0v34.2h12z"></path><path class="cls-30" d="M97.17 302.38h7.2v10.23h-7.2z"></path><path class="cls-31" d="M97.17 302.38h7.2v3.15h-7.2z"></path><path class="cls-29" d="M103.58 302.38h.8v10.23h-.8z"></path><path class="cls-30" d="M97.17 318.11h7.2v10.23h-7.2z"></path><path class="cls-31" d="M97.17 318.11h7.2v3.15h-7.2z"></path><path class="cls-29" d="M103.58 318.11h.8v10.23h-.8z"></path><path class="cls-30" d="M32.33 318.11h13.61v10.23H32.33z"></path><path class="cls-32" d="M55.14 303.16a2.68 2.68 0 00-2.8 2.52v6.92H58v-6.92a2.68 2.68 0 00-2.81-2.52M55.14 318.11a2.68 2.68 0 00-2.8 2.52v6.92H58v-6.92a2.68 2.68 0 00-2.81-2.52"></path><path class="cls-31" d="M32.33 318.11h13.61v3.15H32.33z"></path><path class="cls-30" d="M64.35 318.11h13.61v10.23H64.35z"></path><path class="cls-31" d="M64.35 318.11h13.61v3.15H64.35z"></path><path class="cls-30" d="M32.33 302.38h13.61v10.23H32.33z"></path><path class="cls-31" d="M32.33 302.38h13.61v3.15H32.33z"></path><path class="cls-30" d="M64.35 302.38h13.61v10.23H64.35z"></path><path class="cls-31" d="M64.35 302.38h13.61v3.15H64.35z"></path><path class="cls-30" d="M82.76 302.38h7.21v10.23h-7.21z"></path><path class="cls-31" d="M82.76 302.38h7.21v3.15h-7.21z"></path><path class="cls-29" d="M88.37 302.38h.8v10.23h-.8z"></path><path class="cls-30" d="M82.76 318.11h7.21v10.23h-7.21z"></path><path class="cls-31" d="M82.76 318.11h7.21v3.15h-7.21z"></path><path class="cls-29" d="M88.37 318.11h.8v10.23h-.8z"></path><path fill="#f4c121" d="M90.77 294.51h10.41v34.58H90.77z"></path><path fill="#f5a61e" d="M97.97 294.51h4v34.58h-4z"></path><path class="cls-17" d="M97.97 318.11l-7.2 5.6v1.48l7.2-5.59v-1.49zM97.97 303.16l-7.2 5.66v3l7.2-5.66v-3zM97.97 300.01l-7.2 5.6v1.49l7.2-5.6v-1.49z"></path><path class="cls-35" d="M90.77 315.75h11.2M90.77 299.23h11.2"></path></g></g><g id="Automobile"><path class="cls-7" d="M123.3 356.11h193.39a6 6 0 016 6v174.66a6.73 6.73 0 01-6.73 6.73H124a6.73 6.73 0 01-6.73-6.73V362.11a6 6 0 016.03-6z"></path><ellipse class="cls-36" cx="128.61" cy="366.49" rx="5.11" ry="5.16"></ellipse><ellipse class="cls-3" cx="146.85" cy="366.49" rx="5.11" ry="5.16"></ellipse><ellipse class="cls-37" cx="165.08" cy="366.49" rx="5.11" ry="5.16"></ellipse><path class="cls-2" d="M117.47 376.54h205.4v161a6 6 0 01-6 6h-193.4a6 6 0 01-6-6v-161z"></path><path class="cls-23" d="M117.3 376.54h205.57v25.26H117.3z"></path><path class="cls-30" d="M117.3 401.8h205.57v45.83H117.3z"></path><rect class="cls-2" x="166.27" y="381.19" width="150.55" height="15.95" rx="6.84"></rect><rect class="cls-7" x="123.17" y="381.01" width="16.73" height="16.32" rx="2.39"></rect><path class="cls-2" d="M132.56 385.65v-2l4.47 4.54-4.47 4.81v-2.66a6 6 0 00-3.18 1 14.49 14.49 0 00-3 3.35l.17-2.83a6.53 6.53 0 016-6.14z"></path><path class="cls-26" d="M305.51 515.78h-173a5.3 5.3 0 01-5.3-5.31 5.3 5.3 0 015.3-5.3h173a5.3 5.3 0 015.31 5.3 5.31 5.31 0 01-5.31 5.31zM305.51 536.38h-173a5.3 5.3 0 01-5.3-5.3 5.3 5.3 0 015.3-5.3h173a5.3 5.3 0 015.31 5.3 5.3 5.3 0 01-5.31 5.3z"></path><path class="cls-6" d="M117.3 376.54h205.39V537a6.51 6.51 0 01-6.51 6.51H123.81a6.51 6.51 0 01-6.51-6.51V376.54z"></path><path class="cls-26" d="M202.32 473.9h-69.84a5.3 5.3 0 01-5.3-5.3 5.3 5.3 0 015.3-5.3h69.84a5.3 5.3 0 015.3 5.3 5.3 5.3 0 01-5.3 5.3zM202.32 494.51h-69.84a5.3 5.3 0 01-5.3-5.3 5.3 5.3 0 015.3-5.31h69.84a5.31 5.31 0 015.3 5.31 5.31 5.31 0 01-5.3 5.3z"></path><path d="M176.15 391.47v3h-1.26v-8h1.26v.79a2.34 2.34 0 011.86-.93c1.5 0 2.57 1.12 2.57 3s-1.07 3.05-2.57 3.05a2.29 2.29 0 01-1.86-.91zm3.12-2.1a1.7 1.7 0 00-1.63-1.92 1.89 1.89 0 00-1.49.78v2.29a1.92 1.92 0 001.49.78c1 0 1.63-.8 1.63-1.93zM181.86 392.27v-8h1.26v8zM188.25 392.27v-.62a2.46 2.46 0 01-1.87.77 1.93 1.93 0 01-2-1.92 1.87 1.87 0 012-1.89 2.4 2.4 0 011.87.75v-.87c0-.67-.55-1.07-1.36-1.07a2.36 2.36 0 00-1.71.73l-.52-.88a3.46 3.46 0 012.44-.93c1.28 0 2.41.54 2.41 2.09v3.84zm0-1.32v-.87a1.69 1.69 0 00-1.38-.6 1.1 1.1 0 00-1.24 1c0 .63.53 1 1.24 1a1.69 1.69 0 001.38-.48zM195 392.27v-3.62c0-.9-.46-1.2-1.16-1.2a1.9 1.9 0 00-1.49.78v4h-1.26v-5.79h1.26v.79a2.76 2.76 0 012-.93 1.67 1.67 0 011.87 1.85v4.08zM197.38 391.52l.58-.91a3 3 0 002 .81c.75 0 1.13-.32 1.13-.78s-.61-.61-1.31-.77c-1-.21-2.19-.48-2.19-1.77 0-1 .82-1.76 2.28-1.76a3.3 3.3 0 012.26.81l-.53.89a2.34 2.34 0 00-1.72-.7c-.66 0-1.08.3-1.08.71s.58.54 1.26.7c1 .21 2.25.5 2.25 1.87 0 1-.86 1.8-2.41 1.8a3.57 3.57 0 01-2.52-.9zM203.15 389.35a4.87 4.87 0 014.77-4.73 3.65 3.65 0 013.77 3.73c0 2-1.22 2.9-2.24 2.9a1.05 1.05 0 01-1.14-.92v-.07a2.28 2.28 0 01-1.8 1 1.81 1.81 0 01-1.85-2 3 3 0 012.76-3 1.61 1.61 0 011.51.85l.15-.67h1.12l-.64 3.06a2.48 2.48 0 000 .27c0 .39.22.58.49.58.47 0 1.2-.55 1.2-2a3.15 3.15 0 00-3.34-3.29 4.39 4.39 0 00-4.27 4.26 3.3 3.3 0 003.4 3.36 4.07 4.07 0 002.21-.66l.24.34a4.6 4.6 0 01-2.49.75 3.71 3.71 0 01-3.85-3.76zm5.28.09l.32-1.51a1.17 1.17 0 00-1.09-.73 2 2 0 00-1.84 2 1.06 1.06 0 001.09 1.17 1.92 1.92 0 001.52-.93zM213.39 390.93v-3.35h-1v-1.1h1v-1.58h1.26v1.58h1.17v1.1h-1.17v3c0 .39.19.68.55.68a.78.78 0 00.56-.2l.3.94a1.64 1.64 0 01-1.18.38 1.34 1.34 0 01-1.49-1.45zM217 392.27v-5.79h1.26v.85a2.48 2.48 0 011.89-1v1.24a2.25 2.25 0 00-.4 0 2 2 0 00-1.49.77v3.94zM220.91 385a.78.78 0 11.78.78.79.79 0 01-.78-.78zm.16 7.28v-5.79h1.26v5.79zM225.18 391.47v3h-1.26v-8h1.26v.79a2.32 2.32 0 011.86-.93c1.5 0 2.56 1.12 2.56 3s-1.06 3.05-2.56 3.05a2.27 2.27 0 01-1.86-.91zm3.11-2.1a1.7 1.7 0 00-1.63-1.92 1.87 1.87 0 00-1.48.78v2.29a1.9 1.9 0 001.48.78c1 0 1.63-.8 1.63-1.93zM230.69 385a.78.78 0 11.77.78.78.78 0 01-.77-.78zm.15 7.28v-5.79h1.26v5.79zM234 390.93v-3.35h-1v-1.1h1v-1.58h1.26v1.58h1.17v1.1h-1.17v3c0 .39.19.68.55.68a.78.78 0 00.56-.2l.3.94a1.64 1.64 0 01-1.18.38 1.34 1.34 0 01-1.49-1.45zM237.59 391.56a.84.84 0 011.68 0 .84.84 0 11-1.68 0zM240.15 389.37a2.91 2.91 0 013-3 2.6 2.6 0 012.22 1l-.83.76a1.55 1.55 0 00-1.33-.68 1.93 1.93 0 000 3.85 1.58 1.58 0 001.33-.68l.83.76a2.58 2.58 0 01-2.22 1 2.92 2.92 0 01-3-3.01zM245.94 389.37a3 3 0 113 3.05 2.9 2.9 0 01-3-3.05zm4.65 0a1.69 1.69 0 10-1.67 1.93 1.73 1.73 0 001.67-1.93zM260.26 392.27v-3.78c0-.62-.27-1-.95-1a1.76 1.76 0 00-1.34.77v4h-1.26v-3.78c0-.62-.27-1-1-1a1.76 1.76 0 00-1.33.78v4h-1.26v-5.79h1.26v.79a2.5 2.5 0 011.88-.93 1.52 1.52 0 011.59 1.06 2.45 2.45 0 012-1.06 1.52 1.52 0 011.67 1.75v4.18z"></path><g><path class="cls-2" d="M179 424.4a6.06 6.06 0 016.3-6.22 5.43 5.43 0 014.82 2.71l-1.8.91a3.55 3.55 0 00-3-1.74 4.34 4.34 0 000 8.68 3.52 3.52 0 003-1.75l1.8.92a5.45 5.45 0 01-4.82 2.7 6.05 6.05 0 01-6.3-6.21zM197.23 430.39v-.93a3.67 3.67 0 01-2.8 1.15 2.89 2.89 0 01-3-2.88 2.8 2.8 0 013-2.83 3.57 3.57 0 012.8 1.12v-1.3c0-1-.82-1.62-2-1.62a3.54 3.54 0 00-2.57 1.1l-.78-1.32a5.19 5.19 0 013.66-1.4c1.92 0 3.61.81 3.61 3.15v5.76zm0-2v-1.29a2.52 2.52 0 00-2.07-.9 1.58 1.58 0 100 3.11 2.52 2.52 0 002.07-.9zM201.46 430.39v-8.69h1.89v1.3a3.73 3.73 0 012.83-1.47v1.87a2.64 2.64 0 00-.6-.05 3 3 0 00-2.23 1.15v5.92zM219.25 430.39l-2.67-4.48h-2.09v4.48h-2.11v-12h5.28a3.65 3.65 0 013.93 3.77 3.36 3.36 0 01-2.85 3.52l2.94 4.72zm.17-8.24a1.89 1.89 0 00-2-1.91h-2.88v3.81h2.88a1.89 1.89 0 002-1.9zM222.84 426a4.4 4.4 0 014.41-4.56c2.61 0 4.29 2 4.29 4.73v.46h-6.72a2.64 2.64 0 002.78 2.39 3.68 3.68 0 002.46-.95l.87 1.24a5.08 5.08 0 01-3.53 1.26 4.38 4.38 0 01-4.56-4.57zm4.41-3a2.39 2.39 0 00-2.44 2.3h4.89a2.32 2.32 0 00-2.45-2.3zM239.21 430.39V425c0-1.36-.68-1.81-1.75-1.81a2.85 2.85 0 00-2.23 1.18v6.06h-1.89v-8.73h1.89v1.18a4.13 4.13 0 013.06-1.4 2.51 2.51 0 012.81 2.79v6.12zM243.86 428.38v-5h-1.44v-1.68h1.44v-2.38h1.89v2.38h1.76v1.65h-1.76v4.56c0 .59.28 1 .82 1a1.23 1.23 0 00.85-.3l.45 1.42a2.46 2.46 0 01-1.78.56 2 2 0 01-2.23-2.21zM254.53 430.39v-.93a3.71 3.71 0 01-2.81 1.15 2.89 2.89 0 01-3-2.88 2.8 2.8 0 013-2.83 3.59 3.59 0 012.81 1.12v-1.3c0-1-.83-1.62-2-1.62a3.54 3.54 0 00-2.57 1.1l-.78-1.32a5.19 5.19 0 013.66-1.4c1.92 0 3.62.81 3.62 3.15v5.76zm0-2v-1.29a2.55 2.55 0 00-2.07-.9 1.58 1.58 0 100 3.11 2.55 2.55 0 002.07-.9zM258.76 430.39v-12h1.89v12z"></path></g><g><path d="M147.81 392.33v-7.11h-2.53v-.89h6.07v.89h-2.54v7.11zM151.35 389.43a2.87 2.87 0 112.87 3 2.85 2.85 0 01-2.87-3zm4.79 0a1.95 1.95 0 10-1.92 2.24 2 2 0 001.92-2.24zM158.09 387.11a.66.66 0 11.66.66.67.67 0 01-.66-.66zm0 4.68a.66.66 0 11.66.66.67.67 0 01-.66-.66z"></path></g><g id="Car"><path class="cls-38" d="M301.3 479.62h-2.59c-2.87 0-5.2 3.35-5.2 7.49s2.33 7.49 5.2 7.49h2.59c2.87 0 5.2-3.35 5.2-7.49s-2.33-7.49-5.2-7.49M252.75 479.62h-2.59c-2.87 0-5.2 3.35-5.2 7.49s2.33 7.49 5.2 7.49h2.59c2.87 0 5.2-3.35 5.2-7.49s-2.33-7.49-5.2-7.49"></path><path class="cls-32" d="M289.44 475.79l4.28-.35a1.57 1.57 0 000-3.14l-2.57-.22a1.58 1.58 0 00-1.71 1.58z"></path><path class="cls-21" d="M293.72 475.44l-2 .16a1 1 0 011-1H295a1.57 1.57 0 01-1.28.85"></path><path class="cls-39" d="M266 464.63h3.93c10.63 0 23.51 9 23.51 9l14.34 5.5c2 .77 3.41 3.39 3.41 6.38v6h-57.6l-7.2-26.93z"></path><path d="M269.9 465.89h-18.85v7.55h39.72c-3.92-2.43-13.12-7.55-20.87-7.55" fill="#042d48" fill-rule="evenodd"></path><path d="M224.75 478.55h14.76v13.02h-14.76zM265.56 478.55h14.76v13.02h-14.76z"></path><path class="cls-38" d="M233.61 494.6c2.87 0 5.2-3.35 5.2-7.49s-2.33-7.49-5.2-7.49H231v15z"></path><path class="cls-41" d="M236.22 487.11c0 4.14-2.33 7.49-5.2 7.49s-5.21-3.35-5.21-7.49 2.33-7.49 5.21-7.49 5.2 3.35 5.2 7.49"></path><path class="cls-17" d="M234.47 487.11c0 2.75-1.54 5-3.45 5s-3.46-2.23-3.46-5 1.55-5 3.46-5 3.45 2.23 3.45 5"></path><path class="cls-38" d="M276.4 494.6c2.87 0 5.2-3.35 5.2-7.49s-2.33-7.49-5.2-7.49h-2.59v15z"></path><path class="cls-41" d="M279 487.11c0 4.14-2.33 7.49-5.2 7.49s-5.21-3.35-5.21-7.49 2.33-7.49 5.21-7.49 5.2 3.35 5.2 7.49"></path><path class="cls-17" d="M277.26 487.11c0 2.75-1.54 5-3.45 5s-3.46-2.23-3.46-5 1.55-5 3.46-5 3.45 2.23 3.45 5"></path><path class="cls-39" d="M284.21 479.15l-14.35-5.5s-12.88-9-23.5-9h-3.93c-9.53 0-22.41 6.4-22.41 6.4v9.22a14.79 14.79 0 00-2.4 8.35v3h7.13v-4.4c0-4.48 2.52-8.12 5.64-8.12s5.64 3.64 5.64 8.12v4.4h31.43v-4.4c0-4.48 2.53-8.12 5.64-8.12s5.64 3.64 5.64 8.12v4.4h8.88v-6c0-3-1.4-5.61-3.41-6.38"></path><path d="M246.36 465.89h-3.93c-5.06 0-11.2 1.91-15.68 3.62a1.41 1.41 0 00-.7 2l1.9 3.13H267a.64.64 0 00.33-1.18c-3.86-2.39-13.15-7.61-21-7.61" fill="#0d4c6b" fill-rule="evenodd"></path><path fill="#e04c3f" fill-rule="evenodd" d="M220.02 471.03l2.78 2.48v2.36l-2.78 4.38v-9.22z"></path><path class="cls-39" d="M248.07 475.64h-2.83l-.78-10.14h1.9l1.71 10.14zM229.71 474.99h2.21l.61-7.9h-1.49l-1.33 7.9z"></path><path class="cls-32" d="M265.43 475.79l-4.28-.35a1.57 1.57 0 010-3.14l2.57-.22a1.58 1.58 0 011.71 1.58z"></path><path class="cls-32" d="M266.16 475.71l-.74-.54h-.64a.35.35 0 00-.29.56l.7 1a.71.71 0 00.51.31.67.67 0 00.73-.67v-.13a.68.68 0 00-.27-.54"></path><path class="cls-17" d="M289.24 482.5h-6.17a3.91 3.91 0 01-2.72-1.11l-1.12-1.08a.74.74 0 01.52-1.27h6.17a3.91 3.91 0 012.72 1.11l1.12 1.08a.74.74 0 01-.52 1.27M308.75 479.72a3.69 3.69 0 00-.53.43l-1.12 1.08a.74.74 0 00.52 1.27h3a6.06 6.06 0 00-1.9-2.78M287 488.24a.84.84 0 11-.81-1.08 1.13 1.13 0 01.81 1.08M309.26 488.24a.84.84 0 11-.81-1.08 1.13 1.13 0 01.81 1.08"></path></g></g><g id="Flight"><rect class="cls-7" x="241.25" y="10.29" width="205.39" height="187.4" rx="6"></rect><path class="cls-2" d="M241.25 30.72h205.39v160.46a6.51 6.51 0 01-6.51 6.51H247.76a6.51 6.51 0 01-6.51-6.51V30.72z"></path><path class="cls-10" d="M241.25 55.99h205.39v45.83H241.25z"></path><path class="cls-23" d="M241.25 30.72h205.39v25.26H241.25z"></path><rect class="cls-2" x="290.22" y="35.38" width="150.55" height="15.95" rx="6.84"></rect><rect class="cls-7" x="247.12" y="35.19" width="16.73" height="16.32" rx="2.39"></rect><path class="cls-2" d="M256.51 39.84v-2l4.49 4.51-4.47 4.81V44.5a5.86 5.86 0 00-3.18 1 14.4 14.4 0 00-3 3.34l.17-2.83a6.52 6.52 0 016-6.13z"></path><path class="cls-6" d="M241.25 30.72h205.39v160.46a6.51 6.51 0 01-6.51 6.51H247.76a6.51 6.51 0 01-6.51-6.51V30.72z"></path><path class="cls-26" d="M326.39 127.43h-69.84a5.3 5.3 0 01-5.3-5.31 5.3 5.3 0 015.3-5.3h69.84a5.3 5.3 0 015.3 5.3 5.3 5.3 0 01-5.3 5.31zM326.39 148h-69.84a5.3 5.3 0 01-5.3-5.3 5.3 5.3 0 015.3-5.3h69.84a5.3 5.3 0 015.3 5.3 5.3 5.3 0 01-5.3 5.3zM431.34 127.43H361.5a5.31 5.31 0 01-5.3-5.31 5.3 5.3 0 015.3-5.3h69.84a5.3 5.3 0 015.3 5.3 5.3 5.3 0 01-5.3 5.31zM431.34 148H361.5a5.3 5.3 0 01-5.3-5.3 5.3 5.3 0 015.3-5.3h69.84a5.3 5.3 0 015.3 5.3 5.3 5.3 0 01-5.3 5.3z"></path><g><ellipse class="cls-36" cx="252.56" cy="20.67" rx="5.11" ry="5.16"></ellipse><ellipse class="cls-3" cx="270.8" cy="20.67" rx="5.11" ry="5.16"></ellipse><ellipse class="cls-37" cx="289.03" cy="20.67" rx="5.11" ry="5.16"></ellipse></g><g><path d="M300.1 45.65v3h-1.26v-8h1.26v.8a2.33 2.33 0 011.86-.94c1.5 0 2.57 1.13 2.57 3s-1.07 3.09-2.53 3.09a2.27 2.27 0 01-1.9-.95zm3.12-2.1a1.69 1.69 0 00-1.63-1.91 1.87 1.87 0 00-1.49.78v2.29a1.92 1.92 0 001.49.78c1 0 1.63-.81 1.63-1.94zM305.81 46.46v-8h1.26v8zM312.2 46.46v-.63a2.42 2.42 0 01-1.87.77 1.93 1.93 0 01-2-1.92 1.87 1.87 0 012-1.88 2.4 2.4 0 011.87.74v-.86c0-.67-.55-1.08-1.36-1.08a2.36 2.36 0 00-1.71.73l-.52-.87a3.43 3.43 0 012.44-.94c1.28 0 2.41.54 2.41 2.1v3.84zm0-1.32v-.88a1.72 1.72 0 00-1.38-.6 1.06 1.06 0 100 2.08 1.72 1.72 0 001.38-.6zM319 46.46v-3.63c0-.89-.46-1.19-1.16-1.19a1.9 1.9 0 00-1.49.78v4H315v-5.8h1.26v.8a2.73 2.73 0 012-.94 1.67 1.67 0 011.87 1.86v4.08zM321.33 45.7l.58-.91a3 3 0 002 .82c.75 0 1.13-.33 1.13-.78s-.61-.62-1.31-.77c-1-.22-2.19-.48-2.19-1.78 0-.94.82-1.76 2.28-1.76a3.33 3.33 0 012.26.82l-.53.88a2.37 2.37 0 00-1.72-.69c-.66 0-1.08.3-1.08.71s.58.54 1.26.69c1 .22 2.25.5 2.25 1.87 0 1-.86 1.8-2.41 1.8a3.52 3.52 0 01-2.52-.9zM327.1 43.53a4.86 4.86 0 014.77-4.72 3.65 3.65 0 013.77 3.73c0 2-1.22 2.9-2.24 2.9a1.06 1.06 0 01-1.14-.93v-.07a2.29 2.29 0 01-1.8 1 1.82 1.82 0 01-1.85-2 3 3 0 012.76-3 1.62 1.62 0 011.51.86l.15-.68h1.12l-.64 3.06a1.33 1.33 0 000 .28c0 .38.22.57.49.57.47 0 1.2-.55 1.2-2a3.14 3.14 0 00-3.34-3.29 4.38 4.38 0 00-4.27 4.26 3.3 3.3 0 003.4 3.36 4.16 4.16 0 002.21-.66l.24.33a4.61 4.61 0 01-2.49.76 3.71 3.71 0 01-3.85-3.76zm5.28.1l.33-1.51a1.18 1.18 0 00-1.1-.74 2 2 0 00-1.84 2 1.06 1.06 0 001.09 1.18 1.92 1.92 0 001.52-.93zM337.34 45.11v-3.34h-1v-1.11h1v-1.58h1.26v1.58h1.17v1.11h-1.17v3c0 .4.19.69.55.69a.78.78 0 00.56-.21l.3.95a1.65 1.65 0 01-1.19.37 1.33 1.33 0 01-1.48-1.46zM340.91 46.46v-5.8h1.26v.86a2.46 2.46 0 011.89-1v1.25a2.15 2.15 0 00-.4 0 2 2 0 00-1.49.77v4zM344.86 39.18a.78.78 0 11.78.78.79.79 0 01-.78-.78zm.16 7.28v-5.8h1.26v5.8zM349.13 45.65v3h-1.26v-8h1.26v.8a2.3 2.3 0 011.86-.94c1.49 0 2.56 1.13 2.56 3s-1.07 3.09-2.55 3.09a2.24 2.24 0 01-1.87-.95zm3.12-2.1a1.7 1.7 0 00-1.64-1.91 1.85 1.85 0 00-1.48.78v2.29a1.9 1.9 0 001.48.78 1.72 1.72 0 001.64-1.94zM354.63 39.18a.79.79 0 01.78-.78.78.78 0 110 1.56.79.79 0 01-.78-.78zm.16 7.28v-5.8h1.26v5.8zM357.92 45.11v-3.34h-1v-1.11h1v-1.58h1.26v1.58h1.17v1.11h-1.17v3c0 .4.19.69.55.69a.78.78 0 00.56-.21l.3.95a1.65 1.65 0 01-1.19.37 1.33 1.33 0 01-1.48-1.46zM361.54 45.75a.84.84 0 11.84.84.85.85 0 01-.84-.84zM364.1 43.55a2.91 2.91 0 013-3 2.6 2.6 0 012.22 1l-.83.77a1.53 1.53 0 00-1.33-.68 1.74 1.74 0 00-1.75 1.91 1.76 1.76 0 001.75 1.94 1.56 1.56 0 001.33-.69l.83.77a2.6 2.6 0 01-2.22 1 2.91 2.91 0 01-3-3.02zM369.89 43.55a3 3 0 113 3.05 2.9 2.9 0 01-3-3.05zm4.65 0a1.69 1.69 0 10-1.67 1.94 1.73 1.73 0 001.67-1.94zM384.21 46.46v-3.78c0-.62-.28-1-.95-1a1.75 1.75 0 00-1.34.76v4.06h-1.26v-3.82c0-.62-.28-1-1-1a1.73 1.73 0 00-1.33.78v4h-1.26v-5.8h1.26v.8a2.51 2.51 0 011.88-.94 1.52 1.52 0 011.59 1.07 2.44 2.44 0 012-1.07 1.53 1.53 0 011.67 1.75v4.19z"></path></g><g><path class="cls-2" d="M268.89 84.58v-12h8.23v1.85H271v3.12h6v1.85h-6v5.19zM278.71 84.58v-12h1.89v12zM282.71 73.65a1.18 1.18 0 011.17-1.17 1.17 1.17 0 110 2.34 1.18 1.18 0 01-1.17-1.17zm.29 10.93v-8.7h1.89v8.7zM287.08 86.81l.88-1.37a3.37 3.37 0 002.76 1.12 2.29 2.29 0 002.57-2.36v-1a3.55 3.55 0 01-2.79 1.44c-2.21 0-3.85-1.61-3.85-4.47s1.62-4.46 3.85-4.46a3.45 3.45 0 012.79 1.42v-1.25h1.89v8.25c0 3.13-2.32 4-4.46 4a4.92 4.92 0 01-3.64-1.32zm6.21-5.06v-3.24a2.81 2.81 0 00-2.23-1.17c-1.5 0-2.45 1.12-2.45 2.79s.95 2.79 2.45 2.79a2.81 2.81 0 002.23-1.17zM303.42 84.58V79.1c0-1.35-.71-1.76-1.77-1.76a2.94 2.94 0 00-2.23 1.17v6.07h-1.89v-12h1.89v4.5a4.18 4.18 0 013.08-1.4 2.48 2.48 0 012.81 2.75v6.16zM308.07 82.56v-5h-1.44v-1.68h1.44V73.5H310v2.38h1.77v1.66H310v4.55c0 .6.29 1 .83 1a1.21 1.21 0 00.85-.31l.45 1.43a2.54 2.54 0 01-1.79.55 2 2 0 01-2.27-2.2zM317.58 78.58a6.05 6.05 0 016.3-6.21 5.42 5.42 0 014.82 2.7l-1.8.92a3.56 3.56 0 00-3-1.75 4.34 4.34 0 000 8.68 3.52 3.52 0 003-1.75l1.8.92a5.45 5.45 0 01-4.82 2.7 6.05 6.05 0 01-6.3-6.21zM329.8 80.22a4.48 4.48 0 114.47 4.57 4.35 4.35 0 01-4.47-4.57zm7 0a2.54 2.54 0 10-2.52 2.9 2.61 2.61 0 002.51-2.9zM346.47 84.58v-5.44c0-1.35-.68-1.8-1.75-1.8a2.87 2.87 0 00-2.23 1.17v6.07h-1.89v-8.7h1.89v1.19a4.13 4.13 0 013.06-1.4 2.5 2.5 0 012.81 2.79v6.12zM351.17 84.58v-7h-1.44v-1.7h1.44v-.48a2.69 2.69 0 012.76-3 3.09 3.09 0 011.51.34l-.41 1.4a1.37 1.37 0 00-.76-.19c-.74 0-1.21.48-1.21 1.46v.48h1.77v1.66h-1.77v7zM356 73.65a1.17 1.17 0 111.17 1.17 1.18 1.18 0 01-1.17-1.17zm.23 10.93v-8.7h1.89v8.7zM360.55 84.58v-8.7h1.89v1.28a3.71 3.71 0 012.83-1.48v1.88a2.58 2.58 0 00-.6-.06 3 3 0 00-2.23 1.15v5.93zM377.33 84.58v-5.67c0-.94-.41-1.57-1.42-1.57a2.63 2.63 0 00-2 1.15v6.09H372v-5.67c0-.94-.41-1.57-1.44-1.57a2.63 2.63 0 00-2 1.17v6.07h-1.89v-8.7h1.89v1.19a3.75 3.75 0 012.83-1.4 2.26 2.26 0 012.38 1.6 3.67 3.67 0 013-1.6c1.6 0 2.5.86 2.5 2.62v6.29zM386.9 84.58v-.94a3.67 3.67 0 01-2.81 1.15 2.88 2.88 0 01-3-2.88 2.8 2.8 0 013-2.82 3.59 3.59 0 012.81 1.11v-1.29c0-1-.83-1.62-2-1.62a3.58 3.58 0 00-2.57 1.09l-.77-1.31a5.15 5.15 0 013.65-1.4c1.93 0 3.62.81 3.62 3.15v5.76zm0-2v-1.3a2.55 2.55 0 00-2.07-.9 1.58 1.58 0 100 3.12 2.55 2.55 0 002.07-.9zM391.51 82.56v-5h-1.44v-1.68h1.44V73.5h1.89v2.38h1.76v1.66h-1.76v4.55c0 .6.29 1 .83 1a1.16 1.16 0 00.84-.31l.45 1.43a2.51 2.51 0 01-1.78.55 2 2 0 01-2.23-2.2zM396.61 73.65a1.17 1.17 0 111.17 1.17 1.18 1.18 0 01-1.17-1.17zm.23 10.93v-8.7h1.89v8.7zM400.5 80.22a4.48 4.48 0 114.5 4.57 4.35 4.35 0 01-4.5-4.57zm7 0a2.54 2.54 0 10-2.52 2.9 2.61 2.61 0 002.51-2.9zM417.17 84.58v-5.44c0-1.35-.68-1.8-1.75-1.8a2.87 2.87 0 00-2.23 1.17v6.07h-1.89v-8.7h1.89v1.19a4.13 4.13 0 013.06-1.4 2.5 2.5 0 012.81 2.79v6.12z"></path></g><g><path d="M271.76 46.52V39.4h-2.53v-.88h6.07v.88h-2.54v7.12zM275.3 43.61a2.87 2.87 0 112.87 3 2.84 2.84 0 01-2.87-3zm4.79 0a1.95 1.95 0 10-1.92 2.25 2 2 0 001.92-2.25zM282 41.3a.66.66 0 11.66.66.67.67 0 01-.66-.66zm0 4.7a.66.66 0 11.66.66.66.66 0 01-.66-.66z"></path></g><g id="Plane"><path class="cls-44" d="M318.25 173.28v2.1h-17.54v-2.1l-1.45-5.93-.7-2.83-1.56-6.4h5.24a2.62 2.62 0 012 1l8.44 10.47 1.18 1.46.63.79a3.94 3.94 0 003 1.46z"></path><path d="M304.42 173.18h70c3.42 0 5.52.2 7.77 1.08s2.93 2.1 4.89 3.08S391 179.19 391 181s-1.86 3.18-4.45 4-4.69 1.32-10.11 1.32h-49.99a21.77 21.77 0 01-8.27-1.63l-19.31-8.11a.8.8 0 01-.51-.75V174a.81.81 0 01.67-.8z" fill="#eee" fill-rule="evenodd"></path><g id="Windows"><path class="cls-32" d="M330 177.29a.65.65 0 01-.65-.65V176a.65.65 0 011.3 0v.66a.65.65 0 01-.65.65M327.6 177.29a.66.66 0 01-.66-.65V176a.66.66 0 011.31 0v.66a.66.66 0 01-.65.65M325.19 177.29a.65.65 0 01-.65-.65V176a.65.65 0 111.3 0v.66a.65.65 0 01-.65.65M322.79 177.29a.65.65 0 01-.65-.65V176a.65.65 0 111.3 0v.66a.65.65 0 01-.65.65M368.43 177.29a.65.65 0 01-.65-.65V176a.65.65 0 111.3 0v.66a.65.65 0 01-.65.65M366 177.29a.65.65 0 01-.65-.65V176a.65.65 0 111.3 0v.66a.65.65 0 01-.65.65M370.83 177.29a.65.65 0 01-.65-.65V176a.65.65 0 111.3 0v.66a.65.65 0 01-.65.65M363.63 177.29a.65.65 0 01-.65-.65V176a.65.65 0 011.3 0v.66a.65.65 0 01-.65.65M361.22 177.29a.66.66 0 01-.65-.65V176a.66.66 0 011.31 0v.66a.66.66 0 01-.66.65M358.82 177.29a.65.65 0 01-.65-.65V176a.65.65 0 111.3 0v.66a.65.65 0 01-.65.65M356.42 177.29a.65.65 0 01-.65-.65V176a.65.65 0 111.3 0v.66a.65.65 0 01-.65.65M354 177.29a.65.65 0 01-.65-.65V176a.65.65 0 111.3 0v.66a.65.65 0 01-.65.65M351.62 177.29a.66.66 0 01-.66-.65V176a.66.66 0 01.66-.65.65.65 0 01.65.65v.66a.65.65 0 01-.65.65M349.21 177.29a.65.65 0 01-.65-.65V176a.65.65 0 01.65-.65.66.66 0 01.66.65v.66a.66.66 0 01-.66.65M346.81 177.29a.65.65 0 01-.65-.65V176a.65.65 0 111.3 0v.66a.65.65 0 01-.65.65M344.41 177.29a.65.65 0 01-.65-.65V176a.65.65 0 111.3 0v.66a.65.65 0 01-.65.65M342 177.29a.65.65 0 01-.65-.65V176a.65.65 0 111.3 0v.66a.65.65 0 01-.65.65M339.61 177.29a.66.66 0 01-.66-.65V176a.66.66 0 01.66-.65.65.65 0 01.65.65v.66a.65.65 0 01-.65.65M337.2 177.29a.65.65 0 01-.65-.65V176a.65.65 0 01.65-.65.66.66 0 01.66.65v.66a.66.66 0 01-.66.65M334.8 177.29a.65.65 0 01-.65-.65V176a.65.65 0 111.3 0v.66a.65.65 0 01-.65.65M332.4 177.29a.65.65 0 01-.65-.65V176a.65.65 0 111.3 0v.66a.65.65 0 01-.65.65M386.85 177.24h-3.75a1 1 0 01-.67-.28 1 1 0 01-.28-.65 1 1 0 011-.95h1c.45.32.85.65 1.29 1a10.41 10.41 0 001.43.93M380.86 176v.66a.66.66 0 01-1.31 0V176a.66.66 0 01.66-.65.64.64 0 01.46.19.69.69 0 01.19.46"></path></g><g id="Wing"><path class="cls-44" d="M363.24 182h-25.65a2.14 2.14 0 100 4.27h25.65a2.14 2.14 0 100-4.27"></path><path class="cls-21" d="M362.14 183.5l-34.3-5.72c-.42-.07-.84-.13-1.27-.17a13 13 0 01-6-2.82 3.06 3.06 0 00-1.9-.67l.67 1.57a4.74 4.74 0 002.58 2.55l16.12 6.61H362a.7.7 0 00.7-.56.68.68 0 00-.56-.79"></path><g id="Engine"><path d="M361.44 184.56v5.65a1 1 0 01-1 1h-4.08a41 41 0 01-8.49-1c-.87-.19-1.65-.38-2.3-.54l-.87-.22v-4l.87-.22c.65-.16 1.43-.35 2.3-.54a40.33 40.33 0 018.49-1h4.08a1 1 0 011 1" fill="#66ca88" fill-rule="evenodd"></path><path class="cls-44" d="M345.59 185.16v4.46l-.87-.22v-4l.87-.22"></path><path class="cls-32" d="M347.89 184.62v5.54c-.87-.19-1.65-.38-2.3-.54v-4.46c.65-.16 1.43-.35 2.3-.54M361.44 184.56v5.65a1 1 0 01-1 1H360v-7.6h.51a1 1 0 011 1"></path></g></g><path class="cls-44" d="M299.85 173.22V177l-1-.42a.78.78 0 01-.5-.69.13.13 0 010-.06V174v-.11a.81.81 0 01.66-.69z"></path></g></g></g></svg> 